<?xml version="1.0" encoding="UTF-8"?>
<svg version="1.1" xmlns="http://www.w3.org/2000/svg" width="500" height="500">
<path d="M0 0 C5.51151007 5.08649312 8.58035025 12.61449493 9.16113281 20.06787109 C9.37103798 31.0927739 9.24703075 41.36170189 6 52 C5.76796875 52.78761719 5.5359375 53.57523437 5.296875 54.38671875 C2.76873642 60.89295773 -2.99971305 63.96139315 -9 67 C-15.24037016 69.74673987 -20.37551536 70.47871674 -27.16015625 70.50390625 C-28.10886093 70.51389145 -29.05756561 70.52387665 -30.03501892 70.53416443 C-32.02924265 70.5492718 -34.02354137 70.55639253 -36.01782227 70.5559082 C-39.05807221 70.56249041 -42.09508917 70.61710583 -45.13476562 70.67382812 C-47.08071809 70.68262808 -49.02668593 70.68858371 -50.97265625 70.69140625 C-51.87387711 70.7129628 -52.77509796 70.73451935 -53.70362854 70.75672913 C-59.46000463 70.69455615 -62.5163241 69.54433746 -66.72361755 65.5811615 C-69.07527254 62.66797013 -69.13206273 59.86025749 -69.16113281 56.27246094 C-69.17074036 55.31426453 -69.1803479 54.35606812 -69.19024658 53.36883545 C-69.19449646 52.3344635 -69.19874634 51.30009155 -69.203125 50.234375 C-69.20882507 49.16761536 -69.21452515 48.10085571 -69.22039795 47.00177002 C-69.22984895 44.74223828 -69.23638233 42.48269275 -69.24023438 40.22314453 C-69.2499229 36.77742219 -69.28093892 33.33230065 -69.3125 29.88671875 C-69.31903193 27.6901077 -69.32428165 25.4934924 -69.328125 23.296875 C-69.3404718 22.27059998 -69.3528186 21.24432495 -69.36553955 20.18695068 C-69.34058433 12.11435556 -67.91421608 5.91421608 -62 0 C-47.62443856 -10.97249712 -13.95524832 -11.59317321 0 0 Z " fill="#FD7762" transform="translate(280,218)"/>
<path d="M0 0 C2.50242712 1.89839299 3.36280478 3.16219496 5 6 C5.36742728 12.4912153 1.88354321 17.11120335 -2 22 C-4.23994442 24.44153942 -6.56208495 26.75682964 -9 29 C-8.00468153 32.29792089 -6.41554425 33.53076957 -3.5234375 35.140625 C-2.14665812 35.85549122 -0.76355492 36.55828445 0.625 37.25 C1.33140625 37.61351562 2.0378125 37.97703125 2.765625 38.3515625 C4.50509952 39.24480617 6.25187331 40.12380998 8 41 C8.28875 40.05125 8.5775 39.1025 8.875 38.125 C10 35 10 35 12 33 C11.39093223 37.14166087 10.21738337 40.43634816 8 44 C5.3125 45.375 5.3125 45.375 3 46 C3 45.34 3 44.68 3 44 C0.77312024 42.70425129 -1.45633175 41.41332692 -3.6875 40.125 C-4.31333984 39.76019531 -4.93917969 39.39539063 -5.58398438 39.01953125 C-8.98194942 37.06258803 -12.30067619 35.34392261 -16 34 C-16.556875 34.804375 -17.11375 35.60875 -17.6875 36.4375 C-20.21864487 39.24228216 -21.32579134 39.69381595 -25 40 C-25 39.01 -25 38.02 -25 37 C-23.3203125 35.53515625 -23.3203125 35.53515625 -21.125 34.0625 C-17.98984645 31.95554197 -16.39033838 30.52651974 -15 27 C-14.63443135 24.0011881 -14.63443135 24.0011881 -14.5859375 20.703125 C-14.52792969 18.89521484 -14.52792969 18.89521484 -14.46875 17.05078125 C-14.42234375 15.16939453 -14.42234375 15.16939453 -14.375 13.25 C-14.33632813 11.98027344 -14.29765625 10.71054688 -14.2578125 9.40234375 C-14.16355778 6.2683743 -14.07794834 3.13441051 -14 0 C-14.66386719 0.144375 -15.32773437 0.28875 -16.01171875 0.4375 C-16.89472656 0.623125 -17.77773438 0.80875 -18.6875 1 C-19.99267578 1.2784375 -19.99267578 1.2784375 -21.32421875 1.5625 C-23.93712964 1.98972047 -26.35813038 2.07616201 -29 2 C-29 1.34 -29 0.68 -29 0 C-19.8540365 -4.22121393 -9.09559325 -4.92755154 0 0 Z " fill="#FEF0EE" transform="translate(274,234)"/>
<path d="M0 0 C-0.32145996 0.57073242 -0.64291992 1.14146484 -0.97412109 1.72949219 C-2.04769839 4.10556758 -2.30319209 5.74114872 -2.4140625 8.328125 C-2.47207031 9.52695313 -2.47207031 9.52695313 -2.53125 10.75 C-2.5621875 11.575 -2.593125 12.4 -2.625 13.25 C-2.68300781 14.51070312 -2.68300781 14.51070312 -2.7421875 15.796875 C-2.83615836 17.86423382 -2.91915564 19.93208627 -3 22 C-2.01 22 -1.02 22 0 22 C0.33 23.32 0.66 24.64 1 26 C7.76766787 26.7519631 11.20265836 25.10902918 16.80078125 21.3125 C19 20 19 20 22 20 C22 20.99 22 21.98 22 23 C16.4894403 27.92496889 8.73652944 30.80334056 1.4375 31.1875 C0.2309375 31.0946875 0.2309375 31.0946875 -1 31 C-1.33 32.32 -1.66 33.64 -2 35 C-2.99 35 -3.98 35 -5 35 C-5.83779436 25.29056184 -6.12276617 15.73944972 -6 6 C-6.763125 6.66 -7.52625 7.32 -8.3125 8 C-11 10 -11 10 -14 10 C-13.64295563 7.21626422 -13.21167746 6.1872036 -11.07421875 4.296875 C-10.28660156 3.78640625 -9.49898437 3.2759375 -8.6875 2.75 C-7.51767578 1.96882812 -7.51767578 1.96882812 -6.32421875 1.171875 C-4 0 -4 0 0 0 Z " fill="#FEF1EF" transform="translate(233,232)"/>
<path d="M0 0 C1 1 1 1 1.30859375 4.08984375 C0.93626498 8.80757915 -0.54932779 11.5740483 -2.9375 15.5625 C-5.59378039 20.07221265 -7.48273239 23.67132256 -8 29 C-8.33 27.68 -8.66 26.36 -9 25 C-9.99 25 -10.98 25 -12 25 C-12.08103404 22.08277452 -12.14051081 19.16780484 -12.1875 16.25 C-12.21263672 15.425 -12.23777344 14.6 -12.26367188 13.75 C-12.33834499 7.57702246 -12.33834499 7.57702246 -10.48828125 4.421875 C-9.99714844 3.95265625 -9.50601563 3.4834375 -9 3 C-9.66 2.67 -10.32 2.34 -11 2 C-7.18009548 0.20239787 -4.21571713 -0.28743526 0 0 Z " fill="#FEE2DE" transform="translate(242,229)"/>
<path d="M0 0 C8 1 8 1 10 2.5625 C11.48613469 6.18495331 11.79874389 9.21240801 11 13 C8.28052671 19.20039909 6.43046511 22.42781396 0 25 C0 16.75 0 8.5 0 0 Z " fill="#FD735E" transform="translate(264,234)"/>
<path d="M0 0 C0.33 0 0.66 0 1 0 C1.33 18.48 1.66 36.96 2 56 C0 55 0 55 -1 52 C-1.09202568 50.40506513 -1.12790755 48.80657123 -1.12939453 47.20898438 C-1.13254669 46.2378772 -1.13569885 45.26677002 -1.13894653 44.26623535 C-1.1369223 43.21931519 -1.13489807 42.17239502 -1.1328125 41.09375 C-1.13424759 39.47938049 -1.13424759 39.47938049 -1.13571167 37.83239746 C-1.13639241 35.55607037 -1.13454548 33.27974133 -1.13037109 31.00341797 C-1.12502139 27.51395315 -1.13031968 24.02461705 -1.13671875 20.53515625 C-1.13605795 18.32552055 -1.13477675 16.11588493 -1.1328125 13.90625 C-1.13483673 12.85932983 -1.13686096 11.81240967 -1.13894653 10.73376465 C-1.13579437 9.76265747 -1.13264221 8.79155029 -1.12939453 7.79101562 C-1.12859894 6.93624634 -1.12780334 6.08147705 -1.12698364 5.20080566 C-1 3 -1 3 0 0 Z " fill="#FEAFA4" transform="translate(212,227)"/>
<path d="M0 0 C-0.64985095 4.71370756 -2.51561392 8.57686444 -4.5625 12.8125 C-5.0565332 13.85180664 -5.0565332 13.85180664 -5.56054688 14.91210938 C-6.36872251 16.61044948 -7.18368377 18.30555769 -8 20 C-8.33 20 -8.66 20 -9 20 C-9.107834 17.06152347 -9.18721916 14.12698849 -9.25 11.1875 C-9.28351563 10.35412109 -9.31703125 9.52074219 -9.3515625 8.66210938 C-9.45036851 2.51143542 -9.45036851 2.51143542 -7.15625 -0.09375 C-4.3945808 -1.25445155 -2.82088421 -0.86193684 0 0 Z " fill="#FD7762" transform="translate(240,233)"/>
<path d="M0 0 C0.66 0.33 1.32 0.66 2 1 C1.34 1.66 0.68 2.32 0 3 C0.33 3.33 0.66 3.66 1 4 C1.07319621 6.69654854 1.09242537 9.36691458 1.0625 12.0625 C1.05798828 12.82111328 1.05347656 13.57972656 1.04882812 14.36132812 C1.0370068 16.24091871 1.01907078 18.12046899 1 20 C0.67 20 0.34 20 0 20 C0 15.05 0 10.1 0 5 C-1.65 6.32 -3.3 7.64 -5 9 C-5.99 9 -6.98 9 -8 9 C-7.61479436 6.46089803 -7.29902057 5.27248877 -5.37109375 3.515625 C-4.73300781 3.09796875 -4.09492188 2.6803125 -3.4375 2.25 C-2.79683594 1.82203125 -2.15617188 1.3940625 -1.49609375 0.953125 C-1.00238281 0.63859375 -0.50867188 0.3240625 0 0 Z " fill="#FEE0DB" transform="translate(227,233)"/>
<path d="M0 0 C1.32 0 2.64 0 4 0 C3.6803125 0.50273437 3.360625 1.00546875 3.03125 1.5234375 C1.40294132 5.43384548 1.56812369 9.50915836 1.43359375 13.6875 C1.20126488 18.79873512 1.20126488 18.79873512 -1 21 C-1 15.72 -1 10.44 -1 5 C-1.66 4.67 -2.32 4.34 -3 4 C-1.75 2 -1.75 2 0 0 Z " fill="#FFFAF9" transform="translate(229,232)"/>
<path d="M0 0 C0.33 0 0.66 0 1 0 C1 8.25 1 16.5 1 25 C5.34905688 22.39056587 7.14579818 20.91131361 10 17 C10.33 17.99 10.66 18.98 11 20 C9.93283928 21.20205464 8.84561663 22.38632333 7.75 23.5625 C6.84507812 24.55443359 6.84507812 24.55443359 5.921875 25.56640625 C5.28765625 26.03949219 4.6534375 26.51257813 4 27 C2.68 26.67 1.36 26.34 0 26 C0 17.42 0 8.84 0 0 Z " fill="#FECEC7" transform="translate(263,234)"/>
<path d="M0 0 C-1.69171538 1.12781025 -3.38545543 2.25263933 -5.0859375 3.3671875 C-10.01005435 6.61071839 -14.81390882 9.81390882 -19 14 C-18.41396959 10.04429472 -16.77258188 7.84189643 -14 5 C-9.36486512 1.82904791 -5.73074009 -0.35374939 0 0 Z " fill="#FEBFB5" transform="translate(232,213)"/>
<path d="M0 0 C0 0.99 0 1.98 0 3 C-1.609375 4.3515625 -1.609375 4.3515625 -3.75 5.625 C-4.44609375 6.05039062 -5.1421875 6.47578125 -5.859375 6.9140625 C-7.91546532 7.95711562 -9.74861096 8.54363736 -12 9 C-12.33 8.01 -12.66 7.02 -13 6 C-11.40089132 4.99193149 -9.79551738 3.99379615 -8.1875 3 C-7.29417969 2.443125 -6.40085938 1.88625 -5.48046875 1.3125 C-3 0 -3 0 0 0 Z " fill="#FEE8E4" transform="translate(255,252)"/>
<path d="M0 0 C-3.06718925 2.6915517 -4.92165507 3.3672868 -8.984375 3.29296875 C-9.91894531 3.28330078 -10.85351562 3.27363281 -11.81640625 3.26367188 C-12.78449219 3.23853516 -13.75257813 3.21339844 -14.75 3.1875 C-15.73355469 3.17396484 -16.71710938 3.16042969 -17.73046875 3.14648438 C-20.15420415 3.11118726 -22.57682145 3.06188054 -25 3 C-25 2.67 -25 2.34 -25 2 C-23.89140625 1.93941406 -22.7828125 1.87882812 -21.640625 1.81640625 C-20.1770718 1.73197049 -18.71353075 1.64732401 -17.25 1.5625 C-16.15558594 1.50352539 -16.15558594 1.50352539 -15.0390625 1.44335938 C-9.91685741 1.14068362 -5.12296704 -0.14230464 0 0 Z " fill="#FD9787" transform="translate(271,284)"/>
<path d="M0 0 C1.8125 0.75 1.8125 0.75 2.8125 2.75 C-1.6425 3.245 -1.6425 3.245 -6.1875 3.75 C-6.1875 3.09 -6.1875 2.43 -6.1875 1.75 C-3.9127187 0.36888278 -2.68578639 -0.30694702 0 0 Z " fill="#FEE0DC" transform="translate(251.1875,232.25)"/>
<path d="M0 0 C0.66 0 1.32 0 2 0 C1.6875 2.875 1.6875 2.875 1 6 C0.01 6.66 -0.98 7.32 -2 8 C-1.125 2.25 -1.125 2.25 0 0 Z " fill="#FEF0EE" transform="translate(275,245)"/>
</svg>
